<?xml version="1.0"?>
<svg xmlns="http://www.w3.org/2000/svg" id="Layer_1" data-name="Layer 1" viewBox="0 0 512 512" width="512" height="512"><title>Speaker</title><polygon points="291.43 52.87 291.43 459.13 135.99 344.46 136.6 343.63 136.6 168.37 135.99 167.54 291.43 52.87" style="fill:#00acea"/><polygon points="136.6 168.37 136.6 343.63 135.99 344.46 134.87 343.63 32.85 343.63 32.85 168.37 134.87 168.37 135.99 167.54 136.6 168.37" style="fill:#00efd1"/><path d="M362.692,160.561a7.9,7.9,0,0,0-11.2.771,7.989,7.989,0,0,0,.647,11.287A108.03,108.03,0,0,1,389,254.25v.31a107.674,107.674,0,0,1-36.822,81.309,8.038,8.038,0,0,0,5.383,14.031,7.612,7.612,0,0,0,5.11-1.969A123.694,123.694,0,0,0,405,254.56v-.289A124.009,124.009,0,0,0,362.692,160.561Z" style="fill:#083863"/><path d="M427.864,119.2A8,8,0,1,0,417.056,131,167.11,167.11,0,0,1,471.15,254.25a165.384,165.384,0,0,1-14.7,68.505,170.682,170.682,0,0,1-39.445,54.783,8,8,0,0,0,10.91,11.7,186.624,186.624,0,0,0,43.116-59.9,181.246,181.246,0,0,0,16.119-75.076A183.134,183.134,0,0,0,427.864,119.2Z" style="fill:#083863"/><path d="M294.821,45.729a7.794,7.794,0,0,0-8.248.518L132.233,160H32.85c-4.418,0-7.85,3.952-7.85,8.37V343.63c0,4.418,3.432,8.37,7.85,8.37h99.383L286.681,465.753a7.9,7.9,0,0,0,4.75,1.469,7.183,7.183,0,0,0,3.39-.9A7.876,7.876,0,0,0,299,459.13V52.87A7.806,7.806,0,0,0,294.821,45.729ZM41,176h88V336H41ZM283,443.287,145,340.869V171.133L283,68.713Z" style="fill:#083863"/></svg>
