<?xml version="1.0" encoding="iso-8859-1"?>
<!-- Generator: Adobe Illustrator 21.0.0, SVG Export Plug-In . SVG Version: 6.00 Build 0)  -->
<svg xmlns="http://www.w3.org/2000/svg" xmlns:xlink="http://www.w3.org/1999/xlink" version="1.1" id="Capa_1" x="0px" y="0px" viewBox="0 0 525.668 525.668" style="enable-background:new 0 0 525.668 525.668;" xml:space="preserve" width="512" height="512">
<g>
	<g>
		<path style="fill:#FFE277;" d="M112.584,90c-24.813,0-45-20.187-45-45s20.187-45,45-45s45,20.187,45,45S137.398,90,112.584,90z     M112.584,30c-8.271,0-15,6.729-15,15s6.729,15,15,15s15-6.729,15-15S120.856,30,112.584,30z"/>
	</g>
	<g>
		<path style="fill:#FFE277;" d="M232.584,90c-24.813,0-45-20.187-45-45s20.187-45,45-45s45,20.187,45,45S257.398,90,232.584,90z     M232.584,30c-8.271,0-15,6.729-15,15s6.729,15,15,15s15-6.729,15-15S240.856,30,232.584,30z"/>
	</g>
	<g>
		<g>
			<path style="fill:#FFCB00;" d="M352.584,90c-24.813,0-45-20.187-45-45s20.187-45,45-45s45,20.187,45,45S377.398,90,352.584,90z      M352.584,30c-8.271,0-15,6.729-15,15s6.729,15,15,15s15-6.729,15-15S360.856,30,352.584,30z"/>
		</g>
	</g>
	<g>
		<path style="fill:#FFE277;" d="M112.584,210c-24.813,0-45-20.187-45-45s20.187-45,45-45s45,20.187,45,45S137.398,210,112.584,210z     M112.584,150c-8.271,0-15,6.729-15,15s6.729,15,15,15s15-6.729,15-15S120.856,150,112.584,150z"/>
	</g>
	<g>
		<g>
			<path style="fill:#FFCB00;" d="M352.584,210c-24.813,0-45-20.187-45-45s20.187-45,45-45s45,20.187,45,45S377.398,210,352.584,210     z M352.584,150c-8.271,0-15,6.729-15,15s6.729,15,15,15s15-6.729,15-15S360.856,150,352.584,150z"/>
		</g>
	</g>
	<g>
		<path style="fill:#FFE277;" d="M112.584,329.999c-24.813,0-45-20.187-45-45s20.187-45,45-45s45,20.187,45,45    S137.398,329.999,112.584,329.999z M112.584,270c-8.271,0-15,6.729-15,15s6.729,15,15,15s15-6.729,15-15S120.856,270,112.584,270z    "/>
	</g>
	<g>
		<path style="fill:#FFDCCD;" d="M443.084,512.003l-191.5-0.001c-3.979,0-7.794-1.581-10.606-4.394    c-26.545-26.545-67.539-69.558-102.985-110.668c-16.386-19.004-16.062-46.015,0.754-62.829c13.3-13.3,32.924-16.518,49.285-9.653    l-0.009-19.238c-0.024-50.304-0.047-96.174-0.047-131.366c0-24.823,20.194-45.018,45.018-45.018s45.019,20.195,45.019,45.018    v71.276c4.69-1.65,9.734-2.546,14.982-2.546c11.522,0,22.047,4.351,30.018,11.497c7.972-7.146,18.496-11.497,30.019-11.497    s22.047,4.351,30.018,11.497c7.972-7.146,18.496-11.497,30.019-11.497c24.823,0,45.018,20.195,45.018,45.018v209.401    c0,3.978-1.58,7.793-4.394,10.606S447.063,512.003,443.084,512.003z"/>
	</g>
	<path style="fill:#FFCB00;" d="M232.584,0v30c8.271,0,15,6.729,15,15s-6.729,15-15,15v30c24.813,0,45-20.187,45-45   S257.398,0,232.584,0z"/>
	<rect x="100.501" y="104.335" style="fill:none;" width="222.511" height="421.333"/>
	<path style="fill:#FFCBBC;" d="M413.066,242.584c-11.522,0-22.047,4.351-30.019,11.497c-7.971-7.146-18.495-11.497-30.018-11.497   s-22.047,4.351-30.019,11.497v257.922l120.072,0.001c3.979,0,7.793-1.581,10.606-4.394s4.394-6.628,4.394-10.606V287.602   C458.084,262.779,437.89,242.584,413.066,242.584z"/>
</g>















</svg>
