<svg height="480pt" viewBox="0 0 480 480" width="480pt" xmlns="http://www.w3.org/2000/svg"><path d="m216 336v112c-.027344 8.824219-7.175781 15.972656-16 16h-176c-8.824219-.027344-15.972656-7.175781-16-16v-112c.027344-8.824219 7.175781-15.972656 16-16h32l32-48v48h112c8.824219.027344 15.972656 7.175781 16 16zm0 0" fill="#00ccb3"/><path d="m472 32v112c-.027344 8.824219-7.175781 15.972656-16 16h-32l-32 48v-48h-112c-8.824219-.027344-15.972656-7.175781-16-16v-112c.027344-8.824219 7.175781-15.972656 16-16h176c8.824219.027344 15.972656 7.175781 16 16zm0 0" fill="#ffd422"/><path d="m392 344v-16.160156c.632812.132812 1.277344.1875 1.921875.160156h6.078125v-8c0-22.089844-17.910156-40-40-40s-40 17.910156-40 40v8h8v16c-.019531 11.429688 6.085938 21.992188 16 27.679688v20.320312l-11.601562 3.28125-21.199219 6.078125c-13.746094 3.933594-23.214844 16.503906-23.199219 30.800781v13.519532c-36.066406-30.265626-49.347656-79.859376-33.242188-124.101563 16.105469-44.242187 58.160157-73.6875 105.242188-73.6875s89.136719 29.445313 105.242188 73.6875c16.105468 44.242187 2.824218 93.835937-33.242188 124.101563v-13.519532c.015625-14.296875-9.453125-26.867187-23.199219-30.800781l-21.199219-6.078125-11.601562-3.28125v-20.320312c2.414062-1.398438 4.644531-3.09375 6.640625-5.039063 5.980469-6.019531 9.34375-14.15625 9.359375-22.640625zm0 0" fill="#ffa733"/><path d="m160 224.558594c-25.742188 9.921875-54.257812 9.921875-80 0-11.675781-4.402344-22.5-10.789063-32-18.878906v-13.519532c-.015625-14.296875 9.453125-26.867187 23.199219-30.800781l21.199219-6.078125 27.601562 20.71875 27.601562-20.71875 21.199219 6.078125c13.746094 3.933594 23.214844 16.503906 23.199219 30.800781v13.519532c-9.5 8.089843-20.324219 14.476562-32 18.878906zm0 0" fill="#3d9ae2"/><path d="m400 464.558594c-25.742188 9.921875-54.257812 9.921875-80 0-11.675781-4.402344-22.5-10.789063-32-18.878906v-13.519532c-.015625-14.296875 9.453125-26.867187 23.199219-30.800781l21.199219-6.078125 27.601562 20.71875 27.601562-20.71875 21.199219 6.078125c13.746094 3.933594 23.214844 16.503906 23.199219 30.800781v13.519532c-9.5 8.089843-20.324219 14.476562-32 18.878906zm0 0" fill="#00ccb3"/><path d="m160 88v-8c0-22.089844-17.910156-40-40-40s-40 17.910156-40 40v8h8v16c-.019531 11.429688 6.085938 21.992188 16 27.679688v20.320312l-11.601562 3.28125-21.199219 6.078125c-13.746094 3.933594-23.214844 16.503906-23.199219 30.800781v13.519532c-36.066406-30.265626-49.347656-79.859376-33.242188-124.101563 16.105469-44.242187 58.160157-73.6875 105.242188-73.6875s89.136719 29.445313 105.242188 73.6875c16.105468 44.242187 2.824218 93.835937-33.242188 124.101563v-13.519532c.015625-14.296875-9.453125-26.867187-23.199219-30.800781l-21.199219-6.078125-11.601562-3.28125v-20.320312c2.414062-1.398438 4.644531-3.09375 6.640625-5.039063 5.980469-6.019531 9.34375-14.15625 9.359375-22.640625v-16.160156c.632812.132812 1.277344.1875 1.921875.160156zm0 0" fill="#ff6243"/><g fill="#ffdaaa"><path d="m387.601562 395.28125-27.601562 20.71875-27.601562-20.71875 11.601562-3.28125v-20.320312c9.890625 5.761718 22.109375 5.761718 32 0v20.320312zm0 0"/><path d="m392 328v16c-.015625 8.484375-3.378906 16.621094-9.359375 22.640625-1.996094 1.945313-4.226563 3.640625-6.640625 5.039063-9.894531 5.714843-22.085938 5.714843-31.984375.007812s-16.003906-16.261719-16.015625-27.6875v-16h9.441406c9.484375.019531 18.761719-2.796875 26.636719-8.078125l11.921875-7.921875 3.601562 7.121094c2.355469 4.84375 7.039063 8.140625 12.398438 8.71875zm0 0"/><path d="m147.601562 155.28125-27.601562 20.71875-27.601562-20.71875 11.601562-3.28125v-20.320312c9.890625 5.761718 22.109375 5.761718 32 0v20.320312zm0 0"/><path d="m152 88v16c-.015625 8.484375-3.378906 16.621094-9.359375 22.640625-1.996094 1.945313-4.226563 3.640625-6.640625 5.039063-9.894531 5.714843-22.085938 5.714843-31.984375.007812s-16.003906-16.261719-16.015625-27.6875v-16h9.441406c9.484375.019531 18.761719-2.796875 26.636719-8.078125l11.921875-7.921875 3.601562 7.121094c2.355469 4.84375 7.039063 8.140625 12.398438 8.71875zm0 0"/></g><path d="m360 280c22.089844 0 40 17.910156 40 40v8h-6.078125c-.644531.027344-1.289063-.027344-1.921875-.160156-5.359375-.578125-10.042969-3.875-12.398438-8.71875l-3.601562-7.121094-11.921875 7.921875c-7.875 5.28125-17.152344 8.097656-26.636719 8.078125h-17.441406v-8c0-22.089844 17.910156-40 40-40zm0 0" fill="#57565c"/><path d="m139.601562 79.121094-3.601562-7.121094-11.921875 7.921875c-7.875 5.28125-17.152344 8.097656-26.636719 8.078125h-17.441406v-8c0-22.089844 17.910156-40 40-40s40 17.910156 40 40v8h-6.078125c-.644531.027344-1.289063-.027344-1.921875-.160156-5.359375-.578125-10.042969-3.875-12.398438-8.71875zm0 0" fill="#57565c"/><path d="m136 131.679688v8c-9.890625 5.761718-22.109375 5.761718-32 0v-8c9.890625 5.761718 22.109375 5.761718 32 0zm0 0" fill="#f2cfa2"/><path d="m376 371.679688v8c-9.890625 5.761718-22.109375 5.761718-32 0v-8c9.890625 5.761718 22.109375 5.761718 32 0zm0 0" fill="#f2cfa2"/><path d="m120 240c66.273438 0 120-53.726562 120-120s-53.726562-120-120-120-120 53.726562-120 120c.0742188 66.242188 53.757812 119.925781 120 120zm-32-21.089844v-26.910156h-16v20.167969c-5.640625-2.96875-10.996094-6.453125-16-10.398438v-9.609375c.023438-10.714844 7.117188-20.128906 17.40625-23.113281l17.394531-4.957031 24.398438 18.308594c2.84375 2.136718 6.757812 2.136718 9.601562 0l24.390625-18.308594 17.402344 4.964844c10.289062 2.976562 17.382812 12.390624 17.40625 23.105468v9.648438c-5.003906 3.949218-10.359375 7.429687-16 10.398437v-20.207031h-16v26.910156c-20.792969 6.785156-43.207031 6.785156-64 0zm58.71875-143.34375-3.558594-7.132812c-1.023437-2.058594-2.882812-3.574219-5.101562-4.164063-2.222656-.59375-4.585938-.199219-6.5 1.074219l-11.902344 7.9375c-6.566406 4.386719-14.289062 6.722656-22.183594 6.71875h-9.472656c-.0625-17.671875 14.214844-32.050781 31.886719-32.113281 17.675781-.0625 32.050781 14.214843 32.113281 31.890625-2.292969-.554688-4.226562-2.097656-5.28125-4.210938zm-49.246094 20.433594c11.054688.007812 21.863282-3.265625 31.054688-9.40625l4.382812-2.921875c2.519532 4.445313 6.410156 7.953125 11.089844 10v10.328125c0 13.253906-10.746094 24-24 24s-24-10.746094-24-24v-8zm22.527344 48c2.6875.003906 5.367188-.265625 8-.800781v8.800781c.027344 2.277344 1.03125 4.433594 2.761719 5.921875l-10.761719 8.078125-10.761719-8.078125c1.730469-1.488281 2.734375-3.644531 2.761719-5.921875v-8.800781c2.632812.535156 5.3125.804687 8 .800781zm0-128c40.433594-.039062 77.21875 23.386719 94.289062 60.042969 17.066407 36.652343 11.324219 79.882812-14.730468 110.804687-2.113282-15.738281-13.3125-28.746094-28.558594-33.183594l-27-7.710937v-10.160156c10.035156-7.492188 15.964844-19.269531 16-31.792969v-8c4.417969 0 8-3.582031 8-8v-8c0-26.507812-21.492188-48-48-48s-48 21.492188-48 48v8c0 4.417969 3.582031 8 8 8v8c.035156 12.523438 5.964844 24.300781 16 31.792969v10.160156l-26.992188 7.710937c-15.25 4.433594-26.449218 17.445313-28.566406 33.183594-26.054687-30.921875-31.796875-74.152344-14.730468-110.804687 17.070312-36.65625 53.855468-60.082031 94.289062-60.042969zm0 0"/><path d="m40 112h16v16h-16zm0 0"/><path d="m184 112h16v16h-16zm0 0"/><path d="m360 240c-66.273438 0-120 53.726562-120 120s53.726562 120 120 120 120-53.726562 120-120c-.074219-66.242188-53.757812-119.925781-120-120zm-32 218.910156v-26.910156h-16v20.167969c-5.640625-2.96875-10.996094-6.453125-16-10.398438v-9.609375c.023438-10.714844 7.117188-20.128906 17.40625-23.113281l17.394531-4.957031 24.398438 18.308594c2.84375 2.136718 6.757812 2.136718 9.601562 0l24.390625-18.308594 17.402344 4.964844c10.289062 2.976562 17.382812 12.390624 17.40625 23.105468v9.648438c-5.003906 3.949218-10.359375 7.429687-16 10.398437v-20.207031h-16v26.910156c-20.792969 6.785156-43.207031 6.785156-64 0zm58.71875-143.34375-3.558594-7.132812c-1.023437-2.058594-2.882812-3.574219-5.101562-4.164063-2.222656-.59375-4.585938-.199219-6.5 1.074219l-11.902344 7.9375c-6.566406 4.386719-14.289062 6.722656-22.183594 6.71875h-9.472656c-.0625-17.671875 14.214844-32.050781 31.886719-32.113281 17.675781-.0625 32.050781 14.214843 32.113281 31.890625-2.292969-.554688-4.226562-2.097656-5.28125-4.210938zm-49.246094 20.433594c11.054688.007812 21.863282-3.265625 31.054688-9.40625l4.382812-2.921875c2.519532 4.445313 6.410156 7.953125 11.089844 10v10.328125c0 13.253906-10.746094 24-24 24s-24-10.746094-24-24v-8zm22.527344 48c2.6875.003906 5.367188-.265625 8-.800781v8.800781c.027344 2.277344 1.03125 4.433594 2.761719 5.921875l-10.761719 8.078125-10.761719-8.078125c1.730469-1.488281 2.734375-3.644531 2.761719-5.921875v-8.800781c2.632812.535156 5.3125.804687 8 .800781zm79.558594 42.847656c-2.113282-15.738281-13.3125-28.746094-28.558594-33.183594l-27-7.710937v-10.160156c10.035156-7.492188 15.964844-19.269531 16-31.792969v-8c4.417969 0 8-3.582031 8-8v-8c0-26.507812-21.492188-48-48-48s-48 21.492188-48 48v8c0 4.417969 3.582031 8 8 8v8c.035156 12.523438 5.964844 24.300781 16 31.792969v10.160156l-26.992188 7.710937c-15.25 4.433594-26.449218 17.445313-28.566406 33.183594-35.507812-42.175781-31.933594-104.730468 8.148438-142.585937 40.082031-37.855469 102.738281-37.855469 142.820312 0 40.082032 37.855469 43.65625 100.410156 8.148438 142.585937zm0 0"/><path d="m280 352h16v16h-16zm0 0"/><path d="m424 352h16v16h-16zm0 0"/><path d="m200 312h-104v-40c0-3.527344-2.304688-6.636719-5.679688-7.65625-3.375-1.023438-7.019531.28125-8.976562 3.214844l-29.625 44.441406h-27.71875c-13.253906 0-24 10.746094-24 24v112c0 13.253906 10.746094 24 24 24h176c13.253906 0 24-10.746094 24-24v-112c0-13.253906-10.746094-24-24-24zm8 136c0 4.417969-3.582031 8-8 8h-176c-4.417969 0-8-3.582031-8-8v-112c0-4.417969 3.582031-8 8-8h32c2.675781 0 5.171875-1.335938 6.65625-3.558594l17.34375-26.042968v21.601562c0 4.417969 3.582031 8 8 8h112c4.417969 0 8 3.582031 8 8zm0 0"/><path d="m456 8h-176c-13.253906 0-24 10.746094-24 24v112c0 13.253906 10.746094 24 24 24h104v40c0 3.527344 2.304688 6.636719 5.679688 7.65625 3.375 1.023438 7.019531-.28125 8.976562-3.214844l29.625-44.441406h27.71875c13.253906 0 24-10.746094 24-24v-112c0-13.253906-10.746094-24-24-24zm8 136c0 4.417969-3.582031 8-8 8h-32c-2.675781 0-5.171875 1.335938-6.65625 3.558594l-17.34375 26.042968v-21.601562c0-4.417969-3.582031-8-8-8h-112c-4.417969 0-8-3.582031-8-8v-112c0-4.417969 3.582031-8 8-8h176c4.417969 0 8 3.582031 8 8zm0 0"/><path d="m48 352h128v16h-128zm0 0"/><path d="m48 384h128v16h-128zm0 0"/><path d="m48 416h128v16h-128zm0 0"/><path d="m360 80h16v16h-16zm0 0"/><path d="m392 80h16v16h-16zm0 0"/><path d="m328 80h16v16h-16zm0 0"/></svg>