<?xml version="1.0" encoding="UTF-8" standalone="no"?>
<!-- Generator: Adobe Illustrator 19.0.0, SVG Export Plug-In . SVG Version: 6.00 Build 0)  -->

<svg
   xmlns:dc="http://purl.org/dc/elements/1.1/"
   xmlns:cc="http://creativecommons.org/ns#"
   xmlns:rdf="http://www.w3.org/1999/02/22-rdf-syntax-ns#"
   xmlns:svg="http://www.w3.org/2000/svg"
   xmlns="http://www.w3.org/2000/svg"
   xmlns:sodipodi="http://sodipodi.sourceforge.net/DTD/sodipodi-0.dtd"
   xmlns:inkscape="http://www.inkscape.org/namespaces/inkscape"
   version="1.1"
   id="Layer_1"
   x="0px"
   y="0px"
   viewBox="0 0 511.999 511.999"
   style="enable-background:new 0 0 511.999 511.999;"
   xml:space="preserve"
   sodipodi:docname="like.svg"
   inkscape:version="0.92.3 (2405546, 2018-03-11)"><metadata
   id="metadata3931"><rdf:RDF><cc:Work
       rdf:about=""><dc:format>image/svg+xml</dc:format><dc:type
         rdf:resource="http://purl.org/dc/dcmitype/StillImage" /></cc:Work></rdf:RDF></metadata><defs
   id="defs3929" /><sodipodi:namedview
   pagecolor="#ffffff"
   bordercolor="#666666"
   borderopacity="1"
   objecttolerance="10"
   gridtolerance="10"
   guidetolerance="10"
   inkscape:pageopacity="0"
   inkscape:pageshadow="2"
   inkscape:window-width="1920"
   inkscape:window-height="1022"
   id="namedview3927"
   showgrid="false"
   inkscape:zoom="0.46093841"
   inkscape:cx="255.9995"
   inkscape:cy="255.9995"
   inkscape:window-x="1280"
   inkscape:window-y="27"
   inkscape:window-maximized="1"
   inkscape:current-layer="Layer_1" />
<circle
   style="fill:#e84f4f"
   cx="-256.052"
   cy="255.99899"
   r="255.94701"
   id="circle3886"
   transform="rotate(-90)" />
<path
   style="fill:#d14747"
   d="M 275.31599,0.72600359 419.49499,144.905 l -105.537,44.771 -122.364,118.937 -12.465,92.76 L 1.9179858,224.162 C 17.602986,97.850004 125.32199,3.5871213e-6 255.89199,3.5871213e-6 c 6.544,-0.001 12.984,0.2070000028787 19.424,0.7260000028787 z"
   id="path3888"
   inkscape:connector-curvature="0" />
<path
   style="fill:#ffc964"
   d="m 285.70499,282.02 c -4.259,8.725 -15.062,26.176 -37.914,39.472 -31.89,18.489 -43.524,59.208 -45.082,70.531 -1.558,11.426 -28.877,24.826 -32.201,-12.049 -3.324,-36.875 19.113,-61.806 19.113,-61.806 h -77.387 c -23.684004,3.324 -27.423004,-35.422 -4.155,-35.837 l 7.376,-0.104 0.208,-1.973 h -4.467 c -18.802004,0 -18.802004,-36.876 0,-36.876 h 0.935 c -14.127004,-4.675 -13.192004,-36.148 4.259,-36.148 h 4.986 v -0.104 c -11.945,-2.597 -10.7,-13.711 -10.7,-22.956 0,-15.582 40.511,-23.788 50.691,-26.592 29.397,-7.998 68.142,0.935 101.07,3.947 l 20.671,2.389 h 45.185 V 282.02 h -42.692 z"
   id="path3890"
   inkscape:connector-curvature="0" />
<path
   style="fill:#ffffff"
   d="m 343.77099,290.33 h -52.249 V 155.396 h 52.249 z"
   id="path3892"
   inkscape:connector-curvature="0" />
<path
   style="fill:#006775"
   d="m 419.49499,300.925 h -93.072 v -156.02 h 93.072 z"
   id="path3894"
   inkscape:connector-curvature="0" />
<g
   id="g3896"
   transform="rotate(-180,255.99899,255.9995)">
</g>
<g
   id="g3898"
   transform="rotate(-180,255.99899,255.9995)">
</g>
<g
   id="g3900"
   transform="rotate(-180,255.99899,255.9995)">
</g>
<g
   id="g3902"
   transform="rotate(-180,255.99899,255.9995)">
</g>
<g
   id="g3904"
   transform="rotate(-180,255.99899,255.9995)">
</g>
<g
   id="g3906"
   transform="rotate(-180,255.99899,255.9995)">
</g>
<g
   id="g3908"
   transform="rotate(-180,255.99899,255.9995)">
</g>
<g
   id="g3910"
   transform="rotate(-180,255.99899,255.9995)">
</g>
<g
   id="g3912"
   transform="rotate(-180,255.99899,255.9995)">
</g>
<g
   id="g3914"
   transform="rotate(-180,255.99899,255.9995)">
</g>
<g
   id="g3916"
   transform="rotate(-180,255.99899,255.9995)">
</g>
<g
   id="g3918"
   transform="rotate(-180,255.99899,255.9995)">
</g>
<g
   id="g3920"
   transform="rotate(-180,255.99899,255.9995)">
</g>
<g
   id="g3922"
   transform="rotate(-180,255.99899,255.9995)">
</g>
<g
   id="g3924"
   transform="rotate(-180,255.99899,255.9995)">
</g>
</svg>